<?xml version="1.0" standalone="no"?>
<!DOCTYPE svg PUBLIC "-//W3C//DTD SVG 20010904//EN"
 "http://www.w3.org/TR/2001/REC-SVG-20010904/DTD/svg10.dtd">
<svg version="1.0" xmlns="http://www.w3.org/2000/svg"
 width="448.000000pt" height="448.000000pt" viewBox="0 0 448.000000 448.000000"
 preserveAspectRatio="xMidYMid meet">

<g transform="translate(0.000000,448.000000) scale(0.100000,-0.100000)"
fill="#000000" stroke="none">
<path d="M2031 4189 c-441 -47 -866 -253 -1183 -575 -118 -121 -166 -180 -252
-311 -503 -767 -394 -1791 260 -2447 764 -766 2000 -766 2768 0 770 768 765
2014 -10 2776 -121 118 -180 166 -311 252 -367 241 -828 351 -1272 305z m519
-592 c416 -98 753 -364 944 -746 406 -808 -77 -1789 -976 -1983 -148 -31 -409
-31 -558 1 -281 60 -499 179 -705 386 -209 209 -325 422 -387 708 -29 136 -31
398 -5 531 56 278 181 519 371 711 222 225 482 360 791 411 128 21 394 11 525
-19z"/>
</g>
</svg>
