<?xml version="1.0" standalone="no"?>
<!DOCTYPE svg PUBLIC "-//W3C//DTD SVG 20010904//EN"
 "http://www.w3.org/TR/2001/REC-SVG-20010904/DTD/svg10.dtd">
<svg version="1.0" xmlns="http://www.w3.org/2000/svg"
 width="512.000000pt" height="512.000000pt" viewBox="0 0 512.000000 512.000000"
 preserveAspectRatio="xMidYMid meet">

<g transform="translate(0.000000,512.000000) scale(0.100000,-0.100000)"
fill="#000000" stroke="none">
<path d="M957 4162 c-119 -119 -217 -222 -217 -227 0 -5 307 -317 682 -692
l683 -683 -685 -685 -685 -685 228 -227 227 -228 685 685 685 685 685 -685
685 -685 227 228 228 227 -685 685 -685 685 683 683 c375 375 682 687 682 692
0 13 -432 445 -445 445 -5 0 -317 -307 -692 -682 l-683 -683 -683 683 c-375
375 -687 682 -692 682 -6 0 -108 -98 -228 -218z"/>
</g>
</svg>
